<?xml version="1.0" encoding="UTF-8" standalone="no"?>
<!-- Generator: Adobe Illustrator 17.0.1, SVG Export Plug-In . SVG Version: 6.00 Build 0)  -->

<svg
   version="1.1"
   x="0px"
   y="0px"
   width="86px"
   height="86px"
   viewBox="0 0 86 86"
   enable-background="new 0 0 86 86"
   xml:space="preserve"
   id="svg6"
   sodipodi:docname="harbour-kaidan.svg"
   inkscape:version="1.3.1 (9b9bdc1480, 2023-11-25, custom)"
   xmlns:inkscape="http://www.inkscape.org/namespaces/inkscape"
   xmlns:sodipodi="http://sodipodi.sourceforge.net/DTD/sodipodi-0.dtd"
   xmlns:xlink="http://www.w3.org/1999/xlink"
   xmlns="http://www.w3.org/2000/svg"
   xmlns:svg="http://www.w3.org/2000/svg"><defs
   id="defs6">
	<linearGradient
   id="SVGID_1_"
   gradientUnits="userSpaceOnUse"
   x1="12.8062"
   y1="12.8066"
   x2="85.2829"
   y2="85.2833">
		<stop
   offset="0.0049"
   style="stop-color:#2fc05a;stop-opacity:1;"
   id="stop1" />
		<stop
   offset="1"
   style="stop-color:#1C8C79"
   id="stop2" />
	</linearGradient>
	
	
	
<linearGradient
   xlink:href="#a"
   id="d"
   gradientUnits="userSpaceOnUse"
   x1="127.988"
   y1="808.96899"
   x2="127.988"
   y2="1033.499"
   gradientTransform="matrix(1.011,0,0,1.011,-1.404,-810.782)" /><radialGradient
   id="a"
   gradientUnits="userSpaceOnUse"
   cy="256"
   cx="256"
   gradientTransform="matrix(2.2585,0.02063,-0.02134,2.336,-316.73,-347.29)"
   r="249.14"><stop
     stop-color="#30c357"
     offset="0"
     id="stop1-3" /><stop
     offset=".5"
     stop-color="#2cb465"
     id="stop2-6" /><stop
     stop-color="#32a482"
     offset="1"
     id="stop3" /></radialGradient><radialGradient
   xlink:href="#b"
   id="g"
   cx="97.347"
   cy="925.56201"
   fx="97.347"
   fy="925.56201"
   r="59.347"
   gradientTransform="matrix(0,0.94357,-2.19206,0,2158.799,18.862)"
   gradientUnits="userSpaceOnUse" /><linearGradient
   id="b"><stop
     offset="0"
     stop-opacity=".416"
     id="stop4" /><stop
     offset="1"
     stop-opacity="0"
     id="stop5" /></linearGradient><radialGradient
   xlink:href="#b"
   id="h"
   gradientUnits="userSpaceOnUse"
   gradientTransform="matrix(0,0.8425,-1.93775,0,1946.71,-14.002)"
   cx="95.806"
   cy="937.53601"
   fx="95.806"
   fy="937.53601"
   r="59.347" /><radialGradient
   xlink:href="#b"
   id="f"
   cx="88.753998"
   cy="123.035"
   fx="88.753998"
   fy="123.035"
   r="78.300003"
   gradientTransform="matrix(0.02885,1.09003,-1.35878,0.03597,300.127,33.098)"
   gradientUnits="userSpaceOnUse" /><radialGradient
   xlink:href="#b"
   id="g-6"
   cx="97.347"
   cy="925.56201"
   fx="97.347"
   fy="925.56201"
   r="59.347"
   gradientTransform="matrix(0,0.94357,-2.19206,0,2158.799,18.862)"
   gradientUnits="userSpaceOnUse" /><radialGradient
   xlink:href="#b"
   id="h-1"
   gradientUnits="userSpaceOnUse"
   gradientTransform="matrix(0,0.8425,-1.93775,0,1946.71,-14.002)"
   cx="95.806"
   cy="937.53601"
   fx="95.806"
   fy="937.53601"
   r="59.347" /></defs><sodipodi:namedview
   id="namedview6"
   pagecolor="#ffffff"
   bordercolor="#000000"
   borderopacity="0.25"
   inkscape:showpageshadow="2"
   inkscape:pageopacity="0.0"
   inkscape:pagecheckerboard="0"
   inkscape:deskcolor="#d1d1d1"
   inkscape:zoom="3.588978"
   inkscape:cx="39.983527"
   inkscape:cy="46.392037"
   inkscape:window-width="1848"
   inkscape:window-height="1073"
   inkscape:window-x="72"
   inkscape:window-y="27"
   inkscape:window-maximized="1"
   inkscape:current-layer="svg6"
   showguides="false" />
<g
   id="Layer_2"
   display="none">
</g>
<path
   fill="url(#SVGID_1_)"
   d="M 85.699,43 C 85.699,19.418 66.582,0.3 42.999,0.3 19.417,0.3 0.3,19.418 0.3,43 c 0,23.583 19.117,42.7 42.7,42.7 0.636,0 41.277,0 41.277,0 0.786,0 1.423,-0.637 1.423,-1.423 0,0 -0.001,-40.641 -0.001,-41.277 z"
   id="path2"
   style="fill:url(#SVGID_1_)" />
<g
   id="g17"
   transform="matrix(0.3879457,0,0,0.3879457,-6.1528266,-4.3936843)"><path
     d="m 188.207,160.324 -82.176,19.83 -19.979,-20.038 c 0,0 -13.082,13.261 -18.072,19.778 l 46.02,46.82 14.242,7.371 c 10.099,-1.39 19.726,-3.117 28.797,-5.267 0.013,0 0.026,-0.01 0.04,-0.01 27.199,-7.275 48.656,-19.338 63.52,-36.12 z"
     fill="url(#f)"
     id="path10"
     style="fill:url(#f)" /><g
     id="g16"><path
       d="m 205.473,113.95 -155.834,18.646 30,30 147.375,21.975 c 7.02,-9.995 12.02,-21.406 14.867,-34.211 z"
       fill="url(#g)"
       id="path11"
       style="fill:url(#g-6)" /><path
       d="m 188.46,68.752 45,45 -142.557,-2.826 -24,-24 z"
       fill="url(#h)"
       id="path12"
       style="fill:url(#h-1)" /><g
       transform="matrix(1.011,0,0,1.011,-88.78,-687.44)"
       fill="#c1ede5"
       id="g15"><rect
         x="150.87"
         y="744.15002"
         width="127.26"
         height="26.476"
         ry="13.238"
         rx="13.238"
         id="rect12" /><rect
         x="133.62"
         y="789.12"
         width="161.61"
         height="26.476"
         ry="13.238"
         rx="13.238"
         id="rect13" /><rect
         x="186.23"
         y="834.91998"
         width="91.833"
         height="26.476"
         ry="13.238"
         rx="13.238"
         id="rect14" /><rect
         x="150.8"
         y="834.91998"
         width="26.476"
         height="26.476"
         ry="13.238"
         rx="13.238"
         id="rect15" /></g></g></g></svg>
